<?xml version="1.0" encoding="UTF-8"?>
<svg id="Layer_2" data-name="Layer 2" xmlns="http://www.w3.org/2000/svg" viewBox="0 0 194.25 28.01">
  <defs>
    <style>
      .cls-1 {
        fill: #000;
        stroke-width: 0px;
      }
    </style>
  </defs>
  <g id="Layer_1-2" data-name="Layer 1">
    <path class="cls-1" d="M5.86,26.86v-11.97c0-6.56,3.32-9.6,8.75-9.6s8.75,3.03,8.75,9.6v11.97h5.86v-11.97C29.22,4.66,23.36.07,14.61.07S0,4.66,0,14.89v11.97h5.86Z"/>
    <path class="cls-1" d="M133.53,26.86v-11.97c0-6.56,3.32-9.6,8.75-9.6s8.75,3.03,8.75,9.6v11.97h5.86v-11.97c0-10.23-5.86-14.82-14.61-14.82s-14.61,4.59-14.61,14.82v11.97h5.86Z"/>
    <path class="cls-1" d="M102.08.07c-5.04,0-9.11,1.53-11.67,4.78C87.86,1.61,83.79.07,78.75.07c-8.75,0-14.61,4.59-14.61,14.82v11.97h5.86v-11.97c0-6.56,3.32-9.6,8.75-9.6s8.62,2.93,8.74,9.25c0,.12-.01.23-.01.35v11.97h5.88v-11.97c0-.12-.01-.24-.01-.36.12-6.31,3.41-9.24,8.74-9.24s8.75,3.03,8.75,9.6v11.97h5.86v-11.97C116.69,4.66,110.83.07,102.08.07Z"/>
    <path class="cls-1" d="M55.72,1.22v11.97c0,6.56-3.32,9.6-8.75,9.6s-8.75-3.03-8.75-9.6V1.22h-5.86v11.97c0,10.23,5.86,14.82,14.61,14.82s14.61-4.59,14.61-14.82V1.22h-5.86Z"/>
    <rect class="cls-1" x="119.25" y=".07" width="5.86" height="26.79"/>
    <rect class="cls-1" x="159.45" y=".07" width="5.86" height="26.79"/>
    <path class="cls-1" d="M194.25,19.17V0h-12.71c-9.43,0-13.66,5.4-13.66,13.47s4.23,13.47,13.66,13.47h11.04s1.68,0,1.68,0v-5.4h-6.06s-6.66,0-6.66,0c-6.05,0-8.85-3.06-8.85-8.07s2.8-8.07,8.85-8.07h6.66v13.77h6.06Z"/>
  </g>
</svg>